<svg class="diagram-root" style="background: #f5f6f6" xmlns="http://www.w3.org/2000/svg" xmlns:xlink="http://www.w3.org/1999/xlink"><style>.diagram-root { font-family: "Helvetica Neue", sans-serif; font-size: 12px; } .t { overflow: visible; } .t-bg { y: 40; fill: #fff;   } .th { fill: #005aa0;   } .tht { fill: #fff; font-size: 14px;  } .tf { fill: #323c46; overflow: visible; } .tf.pk { fill: #005aa0; font-weight: bold; } .tf.fk { font-weight: bold; } .ty { fill: #adb1b5; font-weight: normal; text-anchor: end; } .r { fill: transparent; stroke: #c3c3c3; stroke-width: 1; } .l { stroke: 1; } .i { fill: #c2c7ce; stroke: #c2c7ce; } .i.ix { fill: #afb3b6; stroke: #000; } .fa { fill: transparent; overflow: visible; } .fa .bg.hover { fill: #f7f7f7; } .c { cy: 12; r: 4; stroke: #d2d2dc; fill: #d2d2dc; } .hr { fill: transparent; stroke: #323c46; stroke-opacity: 0.035; stroke-width: 13; } .dc { stroke: #fa5a3c; fill: #fa5a3c; } .x { stroke: white; stroke-width: 1; } .hl .th { fill: #1b9bff; } .hl .tht {  } .fhl .bg { fill: #e7f4ff; } .fhls .bg {  } .r.hl { stroke: #1b9bff; } .dim { opacity: 0.25; }</style><g class="drawing-wrapper" transform="translate(-66, -17) scale(1,1)"><g class="rs"><path d="M 405 104 m -1, 0 a 1,1 0 1,0 2,0 a 1,1 0 1,0 -2,0 M 405 104 m -0.5, 0 a 0.5,0.5 0 1,0 1,0 a 0.5,0.5 0 1,0 -1,0  M405 104 L405 104 393 104 M 405 110 m -1, 0 a 1,1 0 1,0 2,0 a 1,1 0 1,0 -2,0 M 405 110 m -0.5, 0 a 0.5,0.5 0 1,0 1,0 a 0.5,0.5 0 1,0 -1,0  M405 110 L405 110 398 104 405 98 M 405 98 m -1, 0 a 1,1 0 1,0 2,0 a 1,1 0 1,0 -2,0 M 405 98 m -0.5, 0 a 0.5,0.5 0 1,0 1,0 a 0.5,0.5 0 1,0 -1,0  M393 104 Q 357.44 104, 321.87 148 T 250.73 192 M 238.73 192 m -1, 0 a 1,1 0 1,0 2,0 a 1,1 0 1,0 -2,0 M 238.73 192 m -0.5, 0 a 0.5,0.5 0 1,0 1,0 a 0.5,0.5 0 1,0 -1,0  M238.73 192 L238.73 192 250.73 192 M244.73 198 L244.73 198 244.73 186" id="h3572062790" class="r"></path><path d="M 238.73 167 m -1, 0 a 1,1 0 1,0 2,0 a 1,1 0 1,0 -2,0 M 238.73 167 m -0.5, 0 a 0.5,0.5 0 1,0 1,0 a 0.5,0.5 0 1,0 -1,0  M238.73 167 L238.73 167 250.73 167 M 238.73 173 m -1, 0 a 1,1 0 1,0 2,0 a 1,1 0 1,0 -2,0 M 238.73 173 m -0.5, 0 a 0.5,0.5 0 1,0 1,0 a 0.5,0.5 0 1,0 -1,0  M238.73 173 L238.73 173 245.73 167 238.73 161 M 238.73 161 m -1, 0 a 1,1 0 1,0 2,0 a 1,1 0 1,0 -2,0 M 238.73 161 m -0.5, 0 a 0.5,0.5 0 1,0 1,0 a 0.5,0.5 0 1,0 -1,0  M250.73 167 Q 291.55 167, 332.37 224.5 T 414 282 M 426 282 m -1, 0 a 1,1 0 1,0 2,0 a 1,1 0 1,0 -2,0 M 426 282 m -0.5, 0 a 0.5,0.5 0 1,0 1,0 a 0.5,0.5 0 1,0 -1,0  M426 282 L426 282 414 282 M420 288 L420 288 420 276" id="h1139284389" class="r"></path><path d="M 238.73 192 m -1, 0 a 1,1 0 1,0 2,0 a 1,1 0 1,0 -2,0 M 238.73 192 m -0.5, 0 a 0.5,0.5 0 1,0 1,0 a 0.5,0.5 0 1,0 -1,0  M238.73 192 L238.73 192 250.73 192 M 238.73 198 m -1, 0 a 1,1 0 1,0 2,0 a 1,1 0 1,0 -2,0 M 238.73 198 m -0.5, 0 a 0.5,0.5 0 1,0 1,0 a 0.5,0.5 0 1,0 -1,0  M238.73 198 L238.73 198 245.73 192 238.73 186 M 238.73 186 m -1, 0 a 1,1 0 1,0 2,0 a 1,1 0 1,0 -2,0 M 238.73 186 m -0.5, 0 a 0.5,0.5 0 1,0 1,0 a 0.5,0.5 0 1,0 -1,0  M250.73 192 C 300.73 192, 307.59399999999994 604, 239.29 604 M 227.29 604 m -1, 0 a 1,1 0 1,0 2,0 a 1,1 0 1,0 -2,0 M 227.29 604 m -0.5, 0 a 0.5,0.5 0 1,0 1,0 a 0.5,0.5 0 1,0 -1,0  M227.29 604 L227.29 604 239.29 604 M233.29 610 L233.29 610 233.29 598" id="h3228762923" class="r"></path><path d="M 227.29 604 m -1, 0 a 1,1 0 1,0 2,0 a 1,1 0 1,0 -2,0 M 227.29 604 m -0.5, 0 a 0.5,0.5 0 1,0 1,0 a 0.5,0.5 0 1,0 -1,0  M227.29 604 L227.29 604 239.29 604 M 227.29 610 m -1, 0 a 1,1 0 1,0 2,0 a 1,1 0 1,0 -2,0 M 227.29 610 m -0.5, 0 a 0.5,0.5 0 1,0 1,0 a 0.5,0.5 0 1,0 -1,0  M227.29 610 L227.29 610 234.29 604 227.29 598 M 227.29 598 m -1, 0 a 1,1 0 1,0 2,0 a 1,1 0 1,0 -2,0 M 227.29 598 m -0.5, 0 a 0.5,0.5 0 1,0 1,0 a 0.5,0.5 0 1,0 -1,0  M239.29 604 Q 277.72 604, 316.15 354 T 393 104 M 405 104 m -1, 0 a 1,1 0 1,0 2,0 a 1,1 0 1,0 -2,0 M 405 104 m -0.5, 0 a 0.5,0.5 0 1,0 1,0 a 0.5,0.5 0 1,0 -1,0  M405 104 L405 104 393 104 M399 110 L399 110 399 98" id="h1397587031" class="r"></path><path d="M 227.29 629 m -1, 0 a 1,1 0 1,0 2,0 a 1,1 0 1,0 -2,0 M 227.29 629 m -0.5, 0 a 0.5,0.5 0 1,0 1,0 a 0.5,0.5 0 1,0 -1,0  M227.29 629 L227.29 629 239.29 629 M 227.29 635 m -1, 0 a 1,1 0 1,0 2,0 a 1,1 0 1,0 -2,0 M 227.29 635 m -0.5, 0 a 0.5,0.5 0 1,0 1,0 a 0.5,0.5 0 1,0 -1,0  M227.29 635 L227.29 635 234.29 629 227.29 623 M 227.29 623 m -1, 0 a 1,1 0 1,0 2,0 a 1,1 0 1,0 -2,0 M 227.29 623 m -0.5, 0 a 0.5,0.5 0 1,0 1,0 a 0.5,0.5 0 1,0 -1,0  M239.29 629 Q 282.97 629, 326.65 455.5 T 414 282 M 426 282 m -1, 0 a 1,1 0 1,0 2,0 a 1,1 0 1,0 -2,0 M 426 282 m -0.5, 0 a 0.5,0.5 0 1,0 1,0 a 0.5,0.5 0 1,0 -1,0  M426 282 L426 282 414 282 M420 288 L420 288 420 276" id="h2286254435" class="r"></path><path d="M 753 501 m -1, 0 a 1,1 0 1,0 2,0 a 1,1 0 1,0 -2,0 M 753 501 m -0.5, 0 a 0.5,0.5 0 1,0 1,0 a 0.5,0.5 0 1,0 -1,0  M753 501 L753 501 741 501 M 753 507 m -1, 0 a 1,1 0 1,0 2,0 a 1,1 0 1,0 -2,0 M 753 507 m -0.5, 0 a 0.5,0.5 0 1,0 1,0 a 0.5,0.5 0 1,0 -1,0  M753 507 L753 507 746 501 753 495 M 753 495 m -1, 0 a 1,1 0 1,0 2,0 a 1,1 0 1,0 -2,0 M 753 495 m -0.5, 0 a 0.5,0.5 0 1,0 1,0 a 0.5,0.5 0 1,0 -1,0  M741 501 Q 708.27 501, 675.53 391.5 T 610.06 282 M 598.06 282 m -1, 0 a 1,1 0 1,0 2,0 a 1,1 0 1,0 -2,0 M 598.06 282 m -0.5, 0 a 0.5,0.5 0 1,0 1,0 a 0.5,0.5 0 1,0 -1,0  M598.06 282 L598.06 282 610.06 282 M604.06 288 L604.06 288 604.06 276" id="h3177548053" class="r"></path><path d="M 800 141 m -1, 0 a 1,1 0 1,0 2,0 a 1,1 0 1,0 -2,0 M 800 141 m -0.5, 0 a 0.5,0.5 0 1,0 1,0 a 0.5,0.5 0 1,0 -1,0  M800 141 L800 141 788 141 M 800 147 m -1, 0 a 1,1 0 1,0 2,0 a 1,1 0 1,0 -2,0 M 800 147 m -0.5, 0 a 0.5,0.5 0 1,0 1,0 a 0.5,0.5 0 1,0 -1,0  M800 147 L800 147 793 141 800 135 M 800 135 m -1, 0 a 1,1 0 1,0 2,0 a 1,1 0 1,0 -2,0 M 800 135 m -0.5, 0 a 0.5,0.5 0 1,0 1,0 a 0.5,0.5 0 1,0 -1,0  M788 141 Q 743.52 141, 699.03 224 T 610.06 307 M 598.06 307 m -1, 0 a 1,1 0 1,0 2,0 a 1,1 0 1,0 -2,0 M 598.06 307 m -0.5, 0 a 0.5,0.5 0 1,0 1,0 a 0.5,0.5 0 1,0 -1,0  M598.06 307 L598.06 307 610.06 307 M604.06 313 L604.06 313 604.06 301" id="h724011168" class="r"></path></g><g class="hrs"></g><g class="ts"><svg width="170.73" height="100" x="405" y="47" id="h475896179" class="t"><rect height="40" width="170.73" class="th"></rect><text x="13" y="25" class="tht">departments</text><rect height="60" width="170.73" class="t-bg"></rect><text x="13" y="61" class="tf pk">dept_no<tspan x="157.73" class="ty">varchar(30)</tspan></text><path d="M7,14A2,2 0 0,1 5,12A2,2 0 0,1 7,10A2,2 0 0,1 9,12A2,2 0 0,1 7,14M12.65,10C11.83,7.67 9.61,6 7, 6A6, 6 0 0, 0 1, 12A6, 6 0 0, 0 7, 18C9.61, 18 11.83, 16.33 12.65, 14H17V18H21V14H23V10H12.65Z" class="i pk" transform="translate(76.37648437499999, 48) scale(0.65)"></path><text x="13" y="86" class="tf">dept_name<tspan x="157.73" class="ty">varchar(30)</tspan></text></svg><svg width="150.73" height="100" x="88" y="110" id="h1090417462" class="t"><rect height="40" width="150.73" class="th"></rect><text x="13" y="25" class="tht">dept_emp</text><rect height="60" width="150.73" class="t-bg"></rect><text x="13" y="61" class="tf fk">emp_no<tspan x="137.73" class="ty">varchar(30)</tspan></text><text x="13" y="86" class="tf fk">dept_no<tspan x="137.73" class="ty">varchar(30)</tspan></text></svg><svg width="116.29" height="100" x="111" y="547" id="h1676682957" class="t"><rect height="40" width="116.29" class="th"></rect><text x="13" y="25" class="tht">dept_manager</text><rect height="60" width="116.29" class="t-bg"></rect><text x="13" y="61" class="tf fk">dept_no</text><text x="13" y="86" class="tf fk">emp_no</text></svg><svg width="172.06" height="225" x="426" y="225" id="h1639608377" class="t"><rect height="40" width="172.06" class="th"></rect><text x="13" y="25" class="tht">employees</text><rect height="185" width="172.06" class="t-bg"></rect><text x="13" y="61" class="tf pk">emp_no<tspan x="159.06" class="ty">varchar(30)</tspan></text><path d="M7,14A2,2 0 0,1 5,12A2,2 0 0,1 7,10A2,2 0 0,1 9,12A2,2 0 0,1 7,14M12.65,10C11.83,7.67 9.61,6 7, 6A6, 6 0 0, 0 1, 12A6, 6 0 0, 0 7, 18C9.61, 18 11.83, 16.33 12.65, 14H17V18H21V14H23V10H12.65Z" class="i pk" transform="translate(77.706484375, 48) scale(0.65)"></path><text x="13" y="86" class="tf fk">emp_title_id<tspan x="159.06" class="ty">varchar(30)</tspan></text><text x="13" y="111" class="tf">birth_date<tspan x="159.06" class="ty">date</tspan></text><text x="13" y="136" class="tf">first_name<tspan x="159.06" class="ty">varchar(30)</tspan></text><text x="13" y="161" class="tf">last_name<tspan x="159.06" class="ty">varchar(30)</tspan></text><text x="13" y="186" class="tf">sex varchar(30)</text><text x="13" y="211" class="tf">hire_date<tspan x="159.06" class="ty">date</tspan></text></svg><svg width="90" height="100" x="753" y="444" id="h2472833127" class="t"><rect height="40" width="90" class="th"></rect><text x="13" y="25" class="tht">salaries</text><rect height="60" width="90" class="t-bg"></rect><text x="13" y="61" class="tf fk">emp_no</text><text x="13" y="86" class="tf">salary</text></svg><svg width="95.69" height="100" x="800" y="84" id="h311790747" class="t"><rect height="40" width="95.69" class="th"></rect><text x="13" y="25" class="tht">titles</text><rect height="60" width="95.69" class="t-bg"></rect><text x="13" y="61" class="tf pk">title_id</text><path d="M7,14A2,2 0 0,1 5,12A2,2 0 0,1 7,10A2,2 0 0,1 9,12A2,2 0 0,1 7,14M12.65,10C11.83,7.67 9.61,6 7, 6A6, 6 0 0, 0 1, 12A6, 6 0 0, 0 7, 18C9.61, 18 11.83, 16.33 12.65, 14H17V18H21V14H23V10H12.65Z" class="i pk" transform="translate(67.69, 48) scale(0.65)"></path><text x="13" y="86" class="tf">title</text></svg></g></g><text class="qdbd-link" x="10" y="20">www.quickdatabasediagrams.com</text></svg>